<?xml version="1.0" encoding="UTF-8" standalone="no"?>
<!-- Created with Inkscape (http://www.inkscape.org/) -->

<svg
   width="600"
   height="100"
   viewBox="0 0 600 100"
   version="1.1"
   id="SVGRoot"
   sodipodi:docname="logobigwhite.svg"
   inkscape:version="1.1.1 (3bf5ae0d25, 2021-09-20)"
   xmlns:inkscape="http://www.inkscape.org/namespaces/inkscape"
   xmlns:sodipodi="http://sodipodi.sourceforge.net/DTD/sodipodi-0.dtd"
   xmlns="http://www.w3.org/2000/svg"
   xmlns:svg="http://www.w3.org/2000/svg">
  <sodipodi:namedview
     id="namedview260"
     pagecolor="#505050"
     bordercolor="#eeeeee"
     borderopacity="1"
     inkscape:pageshadow="0"
     inkscape:pageopacity="0"
     inkscape:pagecheckerboard="0"
     inkscape:document-units="px"
     showgrid="false"
     inkscape:zoom="1.1893044"
     inkscape:cx="314.04912"
     inkscape:cy="-12.192001"
     inkscape:window-width="1024"
     inkscape:window-height="700"
     inkscape:window-x="0"
     inkscape:window-y="0"
     inkscape:window-maximized="1"
     inkscape:current-layer="layer1"
     inkscape:snap-nodes="true"
     width="512px" />
  <defs
     id="defs255" />
  <g
     inkscape:label="Layer 1"
     inkscape:groupmode="layer"
     id="layer1">
    <g
       id="g39"
       transform="translate(16.525115)"
       style="fill:#ffffff">
      <text
         xml:space="preserve"
         style="font-style:normal;font-variant:normal;font-weight:normal;font-stretch:normal;font-size:95.2629px;line-height:1.25;font-family:Brolink;-inkscape-font-specification:'Brolink, Normal';font-variant-ligatures:normal;font-variant-caps:normal;font-variant-numeric:normal;font-variant-east-asian:normal;word-spacing:0px;stroke-width:2.38158;fill:#ffffff"
         x="149.19908"
         y="83.342018"
         id="text3810"><tspan
           sodipodi:role="line"
           id="tspan3808"
           x="149.19908"
           y="83.342018"
           style="stroke-width:2.38158;fill:#ffffff">boamc</tspan></text>
      <g
         id="g10"
         transform="matrix(0.23690655,0,0,0.23690655,3.0718074,-10.647958)"
         style="fill:#ffffff">
        <g
           id="g8"
           style="fill:#ffffff">
          <g
             id="g6"
             style="fill:#ffffff">
            <path
               d="M 455.033,323.694 H 434.69 c 2.258,-6.199 3.434,-12.776 3.434,-19.496 0,-31.411 -25.555,-56.967 -56.966,-56.967 h -80.681 v -58.928 h 1.273 c 14.901,0 28.477,-5.758 38.638,-15.156 13.01,-0.24 24.442,-7.027 31.136,-17.205 1.879,-2.707 4.955,-4.325 8.246,-4.325 4.518,0 8.181,-3.663 8.181,-8.181 0,-4.518 -3.663,-8.181 -8.181,-8.181 -0.671,0 -1.337,0.034 -2,0.085 0,-0.092 0.007,-0.182 0.007,-0.274 0,-4.518 -3.663,-8.181 -8.181,-8.181 -4.518,0 -8.181,3.663 -8.181,8.181 0,5.676 -2.204,10.835 -5.78,14.71 1.986,-5.788 3.08,-11.985 3.08,-18.438 0,-31.411 -25.555,-56.967 -56.965,-56.967 h -36.906 c -43.173,0 -78.297,35.124 -78.297,78.297 v 94.563 h -46.489 c -31.411,0 -56.967,25.555 -56.967,56.968 0,6.725 1.174,13.3 3.43,19.495 H 66.185 c -2.4,0 -4.76,0.167 -7.083,0.456 V 286.031 C 59.102,269.737 45.846,256.48 29.552,256.48 13.256,256.481 0,269.737 0,286.031 v 42.943 c 0,14.011 3.614,27.708 10.466,39.841 -0.813,3.823 -1.248,7.784 -1.248,11.846 0,31.411 25.555,56.967 56.967,56.967 h 388.85 c 31.411,0 56.966,-25.555 56.966,-56.967 C 512,349.249 486.444,323.694 455.033,323.694 Z m -97.722,-60.1 c -3.63,13.818 -16.225,24.041 -31.168,24.041 -14.941,0 -27.536,-10.223 -31.167,-24.041 z M 202.908,164.196 c 13.819,3.63 24.042,16.226 24.042,31.168 0,14.941 -10.224,27.536 -24.042,31.167 z m -10e-4,79.05 h 10e-4 c 22.906,-3.903 40.403,-23.88 40.403,-47.88 0,-23.919 -17.38,-43.844 -40.173,-47.84 2.625,-31.751 29.288,-56.79 61.705,-56.79 h 36.906 c 22.389,0 40.604,18.215 40.604,40.605 0,9.637 -3.381,18.495 -9.011,25.466 h -4.456 c -4.518,0 -8.181,3.663 -8.181,8.181 0,0.728 0.105,1.429 0.283,2.101 -5.729,3.096 -12.282,4.857 -19.239,4.857 h -9.454 c -4.518,0 -8.181,3.663 -8.181,8.181 v 1.813 h -23.507 v 16.36 h 23.507 v 6.707 h -23.507 v 16.362 h 23.507 v 6.355 h -23.507 v 16.362 h 23.507 v 3.149 h -81.208 v -3.989 z m 23.334,20.348 c -3.63,13.818 -16.226,24.041 -31.168,24.041 -14.941,0 -27.536,-10.223 -31.167,-24.041 z m -86.182,0 h 7.134 c 3.903,22.905 23.881,40.402 47.88,40.402 24,0 43.98,-17.498 47.882,-40.402 h 35.308 c 3.903,22.905 23.88,40.402 47.88,40.402 24,0 43.979,-17.498 47.882,-40.402 h 7.134 c 22.389,0 40.604,18.215 40.604,40.605 0,6.881 -1.731,13.545 -5,19.496 H 104.462 c -3.27,-5.952 -5.005,-12.609 -5.007,-19.496 -0.001,-22.39 18.214,-40.605 40.604,-40.605 z m 282.788,76.462 c -3.63,13.819 -16.225,24.042 -31.168,24.042 -14.941,0 -27.536,-10.223 -31.167,-24.042 z m -131.07,0 c -3.63,13.819 -16.226,24.042 -31.168,24.042 -14.941,0 -27.537,-10.223 -31.167,-24.042 z m -131.072,0 c -3.63,13.819 -16.225,24.042 -31.167,24.042 -14.942,0 -27.538,-10.223 -31.168,-24.042 z m -141.383,8.27 c -1.949,-6.227 -2.96,-12.745 -2.96,-19.351 v -42.943 c 0,-7.272 5.916,-13.19 13.19,-13.19 7.272,0 13.189,5.916 13.189,13.19 v 42.732 c -9.468,4.295 -17.559,11.094 -23.419,19.562 z m 435.711,72.939 H 66.185 c -22.389,0 -40.605,-18.215 -40.605,-40.605 0,-22.389 18.215,-40.604 40.605,-40.604 h 15.473 c 3.903,22.906 23.881,40.403 47.883,40.403 24,0 43.979,-17.498 47.88,-40.403 h 35.308 c 3.903,22.906 23.881,40.403 47.88,40.403 24,0 43.98,-17.498 47.882,-40.403 h 35.307 c 3.903,22.906 23.88,40.403 47.88,40.403 24,0 43.979,-17.498 47.882,-40.403 h 15.474 c 22.389,0 40.604,18.215 40.604,40.604 0,22.39 -18.215,40.605 -40.605,40.605 z"
               id="path2"
               style="fill:#ffffff" />
            <circle
               cx="272.633"
               cy="129.91299"
               r="8.0360003"
               id="circle4"
               style="fill:#ffffff" />
          </g>
        </g>
      </g>
    </g>
  </g>
</svg>
